<?xml version="1.0"?><svg id="Layer_2" xmlns="http://www.w3.org/2000/svg" viewBox="0 0 350 351.09"><g id="Assets"><path d="M173.73,158.15c-16.65-12.97-37.59-20.69-60.33-20.69-54.28,0-98.29,44.01-98.29,98.29,0,19.56,5.71,37.78,15.56,53.09C11.41,263.04,0,231.03,0,196.35,0,110.9,69.28,41.62,154.74,41.62c5.43,0,10.8.28,16.08.83-10.97,15.86-17.4,35.1-17.4,55.84,0,22.52,7.57,43.28,20.32,59.85ZM308.46,178.55c-16.03,11.36-35.61,18.03-56.75,18.03-22.74,0-43.68-7.72-60.33-20.69,12.74,16.58,20.32,37.33,20.32,59.85,0,54.29-44,98.29-98.29,98.29-21.23,0-40.9-6.73-56.97-18.18,26.73,22.01,60.97,35.23,98.3,35.23,85.46,0,154.74-69.28,154.74-154.74,0-6.02-.34-11.96-1.01-17.8ZM251.71,0c-33.54,0-63.16,16.8-80.89,42.45,72.04,7.44,129.42,64.3,137.64,136.11,25.14-17.8,41.54-47.12,41.54-80.26C350,44.01,306,0,251.71,0Z"></path></g></svg>